<?xml version="1.0" encoding="UTF-8" standalone="no"?>
<!DOCTYPE svg PUBLIC "-//W3C//DTD SVG 1.1//EN" "http://www.w3.org/Graphics/SVG/1.1/DTD/svg11.dtd">
<svg width="100%" height="100%" viewBox="0 0 54 53" version="1.1" xmlns="http://www.w3.org/2000/svg" xmlns:xlink="http://www.w3.org/1999/xlink" xml:space="preserve" xmlns:serif="http://www.serif.com/" style="fill-rule:evenodd;clip-rule:evenodd;stroke-linejoin:round;stroke-miterlimit:2;">
    <g transform="matrix(1.24906,0,0,1.24906,-153.417,132.012)">
        <path d="M137.449,-71.352L137.805,-71.352L137.819,-71.352C137.886,-71.355 137.935,-71.378 137.969,-71.413C138.006,-71.45 138.03,-71.503 138.03,-71.577C138.03,-71.577 138.03,-77.923 138.03,-77.923C138.03,-77.997 138.006,-78.051 137.969,-78.088C137.932,-78.124 137.879,-78.148 137.805,-78.148L137.805,-78.148L137.804,-78.148L137.454,-78.148L137.449,-78.148L137.449,-78.148C137.375,-78.148 137.322,-78.124 137.285,-78.088C137.248,-78.051 137.224,-77.997 137.224,-77.923C137.224,-77.184 137.07,-76.628 136.753,-76.258C136.44,-75.894 135.969,-75.717 135.344,-75.717L130.213,-75.717C130.198,-75.717 130.185,-75.715 130.178,-75.723C130.17,-75.73 130.172,-75.743 130.172,-75.758C130.172,-75.758 130.172,-83.424 130.172,-83.424C130.172,-83.454 130.174,-83.478 130.189,-83.493C130.204,-83.508 130.228,-83.51 130.258,-83.51C130.258,-83.51 136.431,-83.51 136.431,-83.51C137.013,-83.407 137.422,-83.165 137.654,-82.776C137.895,-82.372 138.06,-81.865 138.152,-81.258C138.249,-80.612 138.334,-80.239 138.396,-80.137C138.398,-80.133 138.4,-80.129 138.403,-80.126C138.49,-80.014 138.626,-79.951 138.813,-79.951C138.939,-79.951 139.025,-79.986 139.076,-80.036C139.118,-80.079 139.142,-80.135 139.142,-80.206L138.886,-84.347C138.886,-84.347 141.805,-84.347 141.805,-84.347C141.834,-84.333 141.87,-84.325 141.912,-84.325C142.568,-84.325 143.088,-84.25 143.474,-84.096C143.479,-84.094 143.484,-84.092 143.489,-84.091C144.634,-83.819 145.678,-83.011 146.629,-81.672C146.629,-81.672 146.629,-81.672 146.629,-81.672C146.897,-81.295 147.175,-80.923 147.462,-80.556C147.462,-80.556 151.934,-74.794 151.934,-74.794C151.934,-74.794 147.316,-68.709 147.316,-68.709C146.979,-68.333 146.638,-67.927 146.292,-67.492C146.291,-67.492 146.291,-67.491 146.291,-67.491C145.032,-65.873 143.767,-64.979 142.489,-64.819L142.484,-64.819L141.912,-64.819C141.838,-64.819 141.785,-64.795 141.748,-64.758C141.711,-64.721 141.687,-64.667 141.687,-64.593L141.794,-64.487L141.687,-64.593L141.687,-64.238C141.687,-64.238 141.794,-64.131 141.794,-64.131L141.687,-64.238C141.687,-64.164 141.711,-64.11 141.748,-64.073C141.785,-64.036 141.838,-64.012 141.912,-64.012L149.963,-64.012C150.037,-64.012 150.091,-64.036 150.128,-64.073C150.165,-64.11 150.189,-64.164 150.189,-64.238L150.188,-64.237L150.189,-64.246L150.189,-64.583C150.189,-64.587 150.189,-64.59 150.188,-64.593L150.189,-64.593C150.189,-64.692 150.137,-64.775 150.016,-64.829C149.898,-64.881 149.691,-64.906 149.395,-64.893C148.784,-64.869 148.325,-64.92 148.019,-65.051C147.748,-65.167 147.609,-65.348 147.609,-65.602C147.609,-65.834 147.67,-66.035 147.795,-66.205C147.795,-66.205 152.909,-72.949 152.909,-72.949C152.963,-73.017 153.016,-73.057 153.077,-73.057C153.138,-73.057 153.191,-73.017 153.245,-72.949C153.245,-72.949 158.46,-66.061 158.46,-66.061C158.564,-65.886 158.619,-65.733 158.619,-65.602C158.619,-65.287 158.447,-65.075 158.11,-64.959C157.86,-64.873 157.528,-64.837 157.113,-64.848C157.112,-64.848 157.111,-64.848 157.11,-64.848C156.909,-64.848 156.769,-64.824 156.689,-64.784C156.596,-64.738 156.558,-64.67 156.558,-64.593L156.665,-64.487C156.665,-64.487 156.558,-64.593 156.558,-64.593L156.558,-64.238C156.558,-64.238 156.665,-64.131 156.665,-64.131L156.558,-64.238C156.558,-64.164 156.582,-64.11 156.619,-64.073C156.656,-64.036 156.71,-64.012 156.784,-64.012L164.954,-64.012C165.424,-64.012 165.639,-64.183 165.639,-64.46C165.639,-64.563 165.61,-64.646 165.556,-64.711C165.483,-64.801 165.358,-64.859 165.175,-64.87C164.933,-64.885 164.736,-64.898 164.582,-64.908C164.445,-64.916 164.322,-64.947 164.216,-65C164.207,-65.005 164.197,-65.008 164.187,-65.01C163.61,-65.116 162.991,-65.48 162.328,-66.095C162.327,-66.096 162.326,-66.096 162.326,-66.097C162.07,-66.323 160.964,-67.74 159.004,-70.344C157.038,-72.957 155.897,-74.484 155.581,-74.924C155.269,-75.357 155.098,-75.6 155.069,-75.654C155.061,-75.668 155.053,-75.682 155.046,-75.694C155.046,-75.694 159.595,-81.637 159.595,-81.637C161.131,-83.424 162.672,-84.325 164.227,-84.325C164.301,-84.325 164.355,-84.349 164.392,-84.386C164.428,-84.423 164.452,-84.477 164.452,-84.551L164.452,-84.551L164.452,-84.559L164.452,-84.897C164.452,-84.9 164.452,-84.903 164.452,-84.906L164.452,-84.907C164.452,-84.981 164.428,-85.034 164.392,-85.071C164.355,-85.108 164.301,-85.132 164.227,-85.132C164.227,-85.132 156.265,-85.132 156.265,-85.132C156.193,-85.132 156.141,-85.111 156.106,-85.08C156.065,-85.044 156.04,-84.993 156.04,-84.922L156.146,-84.815L156.04,-84.921L156.04,-84.559L156.04,-84.551L156.04,-84.551C156.04,-84.477 156.063,-84.423 156.1,-84.386C156.137,-84.349 156.191,-84.325 156.265,-84.325C156.987,-84.325 157.529,-84.25 157.89,-84.093C158.214,-83.953 158.382,-83.749 158.382,-83.468C158.382,-83.235 158.295,-83.016 158.125,-82.81L154.122,-77.68C154.011,-77.553 153.921,-77.463 153.848,-77.413C153.82,-77.393 153.8,-77.377 153.781,-77.377C153.757,-77.377 153.729,-77.38 153.713,-77.382C153.694,-77.408 153.662,-77.444 153.618,-77.489L149.502,-82.951C149.35,-83.184 149.269,-83.375 149.269,-83.528C149.269,-83.891 149.488,-84.114 149.913,-84.209C149.914,-84.21 149.915,-84.21 149.916,-84.21C150.215,-84.288 150.602,-84.325 151.075,-84.325C151.283,-84.325 151.447,-84.333 151.568,-84.347C151.566,-84.347 153.427,-84.347 153.427,-84.347C153.501,-84.347 153.554,-84.371 153.591,-84.408C153.628,-84.445 153.652,-84.498 153.652,-84.572L153.652,-84.572L153.652,-84.58L153.652,-84.918C153.652,-84.922 153.652,-84.925 153.652,-84.928L153.652,-84.928C153.652,-84.989 153.634,-85.036 153.604,-85.072C153.564,-85.12 153.497,-85.153 153.397,-85.153C153.301,-85.153 153.114,-85.176 152.835,-85.219C152.549,-85.263 152.341,-85.295 152.213,-85.315C151.282,-85.459 150.671,-85.649 150.383,-85.898C150.107,-86.138 149.975,-86.512 149.975,-87.019C149.975,-87.019 149.975,-93.113 149.975,-93.113C149.975,-93.146 149.979,-93.173 149.997,-93.19C150.017,-93.209 150.05,-93.213 150.091,-93.213L150.207,-93.213L154.659,-93.036C155.289,-93.046 155.929,-93.235 156.579,-93.606C157.222,-93.972 157.799,-94.452 158.311,-95.044C159.486,-96.38 160.072,-97.869 160.072,-99.511C160.072,-101.156 159.474,-102.568 158.276,-103.746C157.082,-104.92 155.587,-105.568 153.79,-105.689L152.282,-105.689L143.966,-105.467L143.864,-105.467C143.724,-105.467 143.863,-105.253 143.863,-105.253C143.809,-105.253 143.763,-105.294 143.757,-105.348C143.751,-105.402 143.787,-105.452 143.839,-105.464C143.747,-105.443 143.68,-105.4 143.634,-105.339C143.589,-105.281 143.564,-105.204 143.564,-105.108C143.564,-104.957 143.602,-104.846 143.668,-104.771C143.738,-104.69 143.842,-104.645 143.982,-104.645C143.982,-104.645 144.649,-104.645 144.649,-104.645C145.497,-104.645 146.085,-104.531 146.409,-104.288C146.561,-104.174 146.672,-103.983 146.749,-103.72C146.83,-103.437 146.87,-103.074 146.87,-102.632C146.87,-102.632 146.87,-86.974 146.87,-86.974C146.87,-86.544 146.755,-86.194 146.519,-85.925C146.28,-85.653 145.92,-85.466 145.442,-85.358C145.341,-85.338 145.192,-85.298 144.996,-85.238C144.817,-85.183 144.682,-85.153 144.59,-85.153C144.547,-85.153 144.511,-85.147 144.481,-85.137C144.454,-85.147 144.423,-85.153 144.388,-85.153C144.027,-85.153 143.628,-85.264 143.191,-85.483C143.188,-85.484 143.185,-85.486 143.182,-85.487C142.664,-85.694 142.29,-85.989 142.064,-86.376C142.063,-86.376 142.063,-86.377 142.063,-86.377C141.957,-86.55 141.863,-86.742 141.782,-86.953C141.697,-87.173 141.585,-87.417 141.446,-87.686C141.447,-87.684 135.177,-105.277 135.177,-105.277C135.177,-105.278 135.176,-105.28 135.176,-105.281C135.141,-105.369 135.086,-105.415 135.025,-105.433C134.998,-105.44 134.977,-105.448 134.961,-105.455C134.947,-105.463 134.93,-105.467 134.914,-105.467L131.948,-105.467C131.904,-105.467 131.869,-105.452 131.842,-105.43C131.808,-105.402 131.782,-105.356 131.782,-105.286C131.782,-105.274 131.784,-105.263 131.788,-105.252L131.945,-104.781C131.944,-104.776 131.943,-104.773 131.942,-104.77C131.94,-104.766 131.938,-104.762 131.936,-104.757L125.887,-87.246C125.429,-85.91 124.548,-85.211 123.242,-85.153C123.183,-85.153 123.135,-85.145 123.096,-85.132L123.052,-85.132L123.052,-85.132C122.978,-85.132 122.924,-85.108 122.887,-85.071C122.851,-85.034 122.827,-84.981 122.827,-84.907L122.933,-84.8L122.827,-84.907L122.827,-84.559L122.827,-84.551L122.827,-84.551C122.827,-84.477 122.851,-84.423 122.887,-84.386C122.924,-84.349 122.978,-84.325 123.052,-84.325L123.363,-84.325C123.831,-84.325 125.092,-84.219 125.416,-84.15C126.512,-83.897 127.067,-83.314 127.067,-82.386C127.067,-82.386 127.067,-66.758 127.067,-66.758C127.067,-65.866 126.691,-65.305 125.929,-65.082C125.581,-64.985 125.195,-64.935 124.771,-64.93C124.335,-64.925 123.909,-64.908 123.493,-64.878L123.175,-64.878L123.171,-64.878L123.171,-64.878C123.097,-64.878 123.043,-64.854 123.006,-64.817C122.969,-64.78 122.945,-64.727 122.945,-64.653L122.945,-64.238C122.945,-64.164 122.969,-64.11 123.006,-64.073C123.043,-64.036 123.097,-64.012 123.171,-64.012L139.688,-64.012C139.798,-64.012 139.911,-64.092 139.994,-64.284C139.998,-64.295 140.001,-64.305 140.002,-64.316L140.491,-69.298C140.492,-69.302 140.492,-69.305 140.492,-69.308C140.492,-69.406 140.464,-69.477 140.419,-69.525C140.371,-69.577 140.302,-69.608 140.207,-69.608C140.042,-69.608 139.915,-69.561 139.823,-69.475C139.732,-69.391 139.674,-69.266 139.656,-69.097C139.569,-68.284 139.327,-67.563 138.931,-66.934C138.93,-66.934 138.93,-66.934 138.93,-66.933C138.388,-66.068 137.628,-65.634 136.648,-65.634L131.711,-65.634C131.499,-65.634 131.297,-65.649 131.104,-65.678C131.104,-65.678 131.104,-65.678 131.104,-65.678C130.793,-65.723 130.559,-65.837 130.404,-66.029C130.247,-66.222 130.172,-66.491 130.172,-66.832C130.172,-66.832 130.172,-74.053 130.172,-74.053C130.172,-74.068 130.17,-74.081 130.178,-74.089C130.185,-74.097 130.198,-74.095 130.213,-74.095C130.213,-74.095 135.299,-74.095 135.299,-74.095C135.557,-74.095 135.8,-74.066 136.029,-74.009C136.84,-73.792 137.224,-72.974 137.224,-71.577C137.224,-71.503 137.248,-71.45 137.285,-71.413C137.322,-71.376 137.375,-71.352 137.449,-71.352ZM144.46,-84.919C144.439,-84.919 144.419,-84.926 144.402,-84.938C144.4,-84.939 144.393,-84.94 144.388,-84.94C143.999,-84.94 143.569,-85.056 143.099,-85.29L143.102,-85.289C142.534,-85.516 142.128,-85.844 141.88,-86.267C141.768,-86.45 141.669,-86.653 141.583,-86.876C141.5,-87.091 141.39,-87.329 141.254,-87.592C141.252,-87.597 141.25,-87.601 141.248,-87.606C141.248,-87.606 134.977,-105.203 134.977,-105.204C134.972,-105.214 134.965,-105.226 134.962,-105.229C134.934,-105.237 134.91,-105.245 134.891,-105.253L132.012,-105.253L132.153,-104.83C132.157,-104.819 132.159,-104.808 132.159,-104.796C132.159,-104.751 132.15,-104.713 132.136,-104.682C132.136,-104.682 126.089,-87.177 126.089,-87.177C125.598,-85.745 124.65,-85.001 123.249,-84.94C123.248,-84.94 123.246,-84.94 123.245,-84.94C123.209,-84.94 123.181,-84.937 123.16,-84.928C123.146,-84.922 123.131,-84.919 123.116,-84.919L123.052,-84.919C123.049,-84.919 123.045,-84.918 123.041,-84.918C123.041,-84.914 123.04,-84.91 123.04,-84.907L123.04,-84.906C123.04,-84.903 123.04,-84.9 123.04,-84.897L123.04,-84.559L123.04,-84.551L123.04,-84.551C123.04,-84.548 123.041,-84.543 123.041,-84.54C123.045,-84.539 123.049,-84.539 123.052,-84.539L123.052,-84.539L123.056,-84.539L123.362,-84.539L123.363,-84.539L123.363,-84.539C123.841,-84.538 125.132,-84.429 125.461,-84.359C125.462,-84.359 125.463,-84.358 125.463,-84.358C126.68,-84.078 127.281,-83.416 127.281,-82.386L127.281,-66.758C127.281,-65.753 126.847,-65.128 125.988,-64.876C125.988,-64.876 125.987,-64.876 125.987,-64.876C125.623,-64.775 125.218,-64.722 124.773,-64.717C124.34,-64.712 123.917,-64.694 123.504,-64.665L123.497,-64.665L123.497,-64.665C123.494,-64.665 123.492,-64.665 123.49,-64.665L123.171,-64.665C123.167,-64.665 123.163,-64.664 123.16,-64.664C123.159,-64.66 123.159,-64.656 123.159,-64.653C123.159,-64.653 123.159,-64.238 123.159,-64.238C123.159,-64.234 123.159,-64.23 123.16,-64.227C123.163,-64.226 123.167,-64.226 123.171,-64.226L139.688,-64.226C139.707,-64.226 139.721,-64.241 139.737,-64.261C139.756,-64.285 139.774,-64.316 139.791,-64.354L140.278,-69.313L140.278,-69.318C140.278,-69.345 140.275,-69.366 140.262,-69.381C140.25,-69.393 140.231,-69.394 140.207,-69.394C140.105,-69.394 140.025,-69.372 139.968,-69.319C139.911,-69.265 139.88,-69.183 139.868,-69.075C139.778,-68.227 139.525,-67.476 139.111,-66.82C138.526,-65.887 137.705,-65.421 136.648,-65.421C136.648,-65.421 131.711,-65.421 131.711,-65.421C131.488,-65.421 131.275,-65.436 131.073,-65.466C130.701,-65.52 130.424,-65.665 130.238,-65.894C130.054,-66.121 129.958,-66.433 129.958,-66.832L129.958,-74.053C129.958,-74.137 129.985,-74.198 130.027,-74.24C130.069,-74.282 130.13,-74.308 130.213,-74.308L135.299,-74.308C135.575,-74.308 135.836,-74.277 136.081,-74.216C136.082,-74.216 136.082,-74.216 136.083,-74.216C136.971,-73.978 137.437,-73.106 137.437,-71.577C137.437,-71.574 137.438,-71.57 137.438,-71.566C137.442,-71.566 137.446,-71.565 137.449,-71.565L137.803,-71.565L137.805,-71.565L137.805,-71.565C137.808,-71.565 137.812,-71.566 137.816,-71.566C137.816,-71.57 137.817,-71.574 137.817,-71.577L137.817,-77.923C137.817,-77.926 137.816,-77.931 137.816,-77.934C137.812,-77.935 137.808,-77.935 137.805,-77.935L137.449,-77.935C137.446,-77.935 137.442,-77.935 137.438,-77.934C137.438,-77.931 137.437,-77.926 137.437,-77.923C137.437,-77.12 137.26,-76.52 136.915,-76.119C136.565,-75.712 136.043,-75.503 135.344,-75.503C135.344,-75.503 130.213,-75.503 130.213,-75.503C130.13,-75.503 130.069,-75.53 130.027,-75.572C129.985,-75.614 129.958,-75.674 129.958,-75.758L129.958,-83.424C129.958,-83.523 129.989,-83.595 130.038,-83.644C130.087,-83.693 130.159,-83.723 130.258,-83.723L136.441,-83.723C136.447,-83.723 136.453,-83.723 136.459,-83.722C137.118,-83.607 137.576,-83.325 137.837,-82.885C138.091,-82.46 138.267,-81.928 138.363,-81.29C138.452,-80.702 138.519,-80.355 138.575,-80.252L138.578,-80.249C138.629,-80.19 138.709,-80.165 138.813,-80.165C138.846,-80.165 138.874,-80.168 138.897,-80.174C138.916,-80.179 138.928,-80.188 138.929,-80.205L138.666,-84.447C138.664,-84.476 138.674,-84.505 138.694,-84.527C138.714,-84.548 138.743,-84.56 138.772,-84.56L141.833,-84.56C141.855,-84.56 141.876,-84.554 141.894,-84.541C141.896,-84.541 141.906,-84.539 141.912,-84.539C142.597,-84.539 143.141,-84.457 143.546,-84.297L143.542,-84.298C144.729,-84.015 145.818,-83.183 146.803,-81.796C147.069,-81.421 147.345,-81.052 147.63,-80.687L152.153,-74.86C152.183,-74.822 152.183,-74.768 152.154,-74.73L147.483,-68.577C147.481,-68.574 147.48,-68.572 147.478,-68.57C147.143,-68.196 146.803,-67.792 146.459,-67.359C145.152,-65.68 143.83,-64.767 142.503,-64.606L141.912,-64.605C141.909,-64.605 141.905,-64.605 141.901,-64.604C141.901,-64.601 141.9,-64.597 141.9,-64.593L141.9,-64.246L141.9,-64.237L141.9,-64.238C141.9,-64.234 141.901,-64.23 141.901,-64.227C141.905,-64.226 141.909,-64.226 141.912,-64.226C141.912,-64.226 149.963,-64.226 149.963,-64.226C149.967,-64.226 149.971,-64.226 149.974,-64.227C149.975,-64.23 149.975,-64.234 149.975,-64.238L149.975,-64.237L149.975,-64.246L149.975,-64.593C149.975,-64.593 150.082,-64.487 150.082,-64.487L149.975,-64.593C149.975,-64.604 149.968,-64.611 149.958,-64.617C149.939,-64.631 149.914,-64.641 149.882,-64.65C149.776,-64.68 149.617,-64.689 149.405,-64.68C149.404,-64.68 149.404,-64.68 149.404,-64.68C148.751,-64.654 148.261,-64.715 147.934,-64.855C147.572,-65.011 147.395,-65.262 147.395,-65.602C147.395,-65.883 147.472,-66.127 147.624,-66.332L152.742,-73.082C152.846,-73.212 152.96,-73.27 153.077,-73.27C153.194,-73.27 153.308,-73.212 153.412,-73.082L158.633,-66.185C158.636,-66.182 158.638,-66.179 158.64,-66.176C158.771,-65.957 158.833,-65.765 158.833,-65.602C158.833,-65.192 158.618,-64.909 158.179,-64.757C157.912,-64.665 157.555,-64.623 157.109,-64.635C156.976,-64.635 156.877,-64.626 156.81,-64.603C156.796,-64.599 156.779,-64.589 156.772,-64.585L156.772,-64.583L156.772,-64.246L156.772,-64.237L156.772,-64.238C156.772,-64.234 156.772,-64.23 156.773,-64.227C156.776,-64.226 156.781,-64.226 156.784,-64.226C156.784,-64.226 164.954,-64.226 164.954,-64.226C165.091,-64.226 165.202,-64.24 165.285,-64.273C165.376,-64.309 165.425,-64.37 165.425,-64.46C165.425,-64.507 165.415,-64.546 165.391,-64.576C165.348,-64.629 165.27,-64.651 165.162,-64.657C164.92,-64.672 164.722,-64.685 164.569,-64.694C164.406,-64.705 164.261,-64.741 164.134,-64.803C163.529,-64.918 162.877,-65.294 162.184,-65.937C161.926,-66.165 160.808,-67.591 158.834,-70.215C156.866,-72.831 155.724,-74.359 155.407,-74.799C155.086,-75.245 154.911,-75.496 154.881,-75.552C154.861,-75.589 154.839,-75.623 154.837,-75.627C154.802,-75.665 154.799,-75.723 154.831,-75.764L159.431,-81.774C161.018,-83.622 162.62,-84.539 164.227,-84.539C164.23,-84.539 164.235,-84.539 164.238,-84.54C164.239,-84.543 164.239,-84.548 164.239,-84.551C164.239,-84.547 164.239,-84.544 164.239,-84.54L164.246,-84.541L164.24,-84.536C164.247,-84.484 164.292,-84.444 164.346,-84.444C164.346,-84.444 164.239,-84.551 164.239,-84.551L164.239,-84.907C164.239,-84.907 164.346,-84.8 164.346,-84.8L164.239,-84.907C164.239,-84.91 164.239,-84.914 164.238,-84.918C164.234,-84.918 164.23,-84.919 164.227,-84.919L156.265,-84.919C156.261,-84.919 156.257,-84.918 156.253,-84.918C156.253,-84.916 156.253,-84.913 156.253,-84.911L156.253,-84.559L156.253,-84.551L156.253,-84.551C156.253,-84.548 156.253,-84.543 156.254,-84.54C156.257,-84.539 156.262,-84.539 156.265,-84.539C157.025,-84.539 157.595,-84.454 157.975,-84.289C158.394,-84.108 158.596,-83.831 158.596,-83.468C158.596,-83.188 158.495,-82.923 158.291,-82.675L154.284,-77.542C154.158,-77.397 154.053,-77.296 153.971,-77.238C153.895,-77.185 153.83,-77.164 153.781,-77.164C153.702,-77.164 153.647,-77.174 153.617,-77.187C153.578,-77.204 153.557,-77.229 153.545,-77.253C153.545,-77.253 153.545,-77.253 153.545,-77.253C153.537,-77.268 153.508,-77.297 153.461,-77.343C153.458,-77.347 153.454,-77.351 153.451,-77.355L149.329,-82.826C149.328,-82.828 149.327,-82.83 149.325,-82.832C149.142,-83.112 149.056,-83.345 149.056,-83.528C149.056,-83.765 149.127,-83.958 149.266,-84.108C149.399,-84.252 149.598,-84.357 149.864,-84.417C150.177,-84.498 150.581,-84.539 151.075,-84.539C151.275,-84.539 151.432,-84.546 151.547,-84.56C151.552,-84.56 151.556,-84.56 151.56,-84.56C151.56,-84.56 153.427,-84.56 153.427,-84.56C153.43,-84.56 153.434,-84.561 153.438,-84.561C153.438,-84.565 153.439,-84.569 153.439,-84.572L153.439,-84.572L153.439,-84.58L153.439,-84.928L153.439,-84.928L153.438,-84.934C153.431,-84.936 153.412,-84.94 153.397,-84.94C153.296,-84.94 153.097,-84.962 152.803,-85.008L152.18,-85.104C151.193,-85.257 150.549,-85.472 150.243,-85.737C149.926,-86.012 149.762,-86.437 149.762,-87.019L149.762,-93.113C149.762,-93.217 149.795,-93.294 149.851,-93.346C149.905,-93.396 149.984,-93.427 150.091,-93.427L150.091,-93.426C150.095,-93.427 150.099,-93.427 150.103,-93.427L150.207,-93.427C150.21,-93.427 150.212,-93.427 150.214,-93.427L150.214,-93.427C150.214,-93.427 154.659,-93.249 154.659,-93.249C155.254,-93.259 155.858,-93.441 156.473,-93.791C157.095,-94.146 157.654,-94.61 158.15,-95.184C158.15,-95.184 158.151,-95.185 158.151,-95.185C159.289,-96.479 159.859,-97.92 159.859,-99.511C159.859,-101.097 159.281,-102.458 158.126,-103.593C156.969,-104.731 155.52,-105.358 153.779,-105.476C153.779,-105.476 152.287,-105.476 152.287,-105.476L143.967,-105.253C143.967,-105.253 143.877,-105.253 143.874,-105.253C143.844,-105.244 143.82,-105.231 143.804,-105.21C143.784,-105.184 143.777,-105.15 143.777,-105.108C143.777,-105.021 143.791,-104.955 143.829,-104.911C143.862,-104.873 143.915,-104.859 143.982,-104.859L144.649,-104.859C145.561,-104.859 146.189,-104.72 146.537,-104.459C146.685,-104.348 146.806,-104.18 146.895,-103.953C147.02,-103.634 147.084,-103.194 147.084,-102.632L147.084,-86.974C147.084,-86.485 146.947,-86.089 146.679,-85.784C146.414,-85.483 146.018,-85.27 145.488,-85.15L145.059,-85.034C144.852,-84.97 144.696,-84.94 144.59,-84.94C144.571,-84.94 144.556,-84.94 144.545,-84.933C144.531,-84.925 144.515,-84.92 144.498,-84.919L144.491,-84.919L144.464,-84.919L144.46,-84.919ZM156.771,-64.593L156.772,-64.593C156.772,-64.593 156.772,-64.592 156.772,-64.591L156.771,-64.593ZM129.651,-93.104L129.653,-93.117L127.429,-86.608L127.53,-86.467C127.53,-86.467 127.423,-86.574 127.423,-86.574L127.423,-86.443L127.423,-86.44L127.423,-86.44C127.423,-86.153 127.567,-85.891 127.865,-85.659C127.865,-85.659 127.865,-85.659 127.865,-85.659C128.484,-85.182 129.316,-84.94 130.362,-84.94L130.747,-84.94C130.754,-84.94 130.763,-84.938 130.765,-84.938C130.783,-84.925 130.804,-84.919 130.826,-84.919L135.336,-84.919C135.345,-84.919 135.355,-84.92 135.364,-84.922C135.45,-84.945 135.579,-84.96 135.75,-84.97C136.117,-84.99 136.419,-85.009 136.657,-85.029C136.658,-85.029 136.659,-85.029 136.66,-85.029C138.11,-85.186 138.816,-85.705 138.816,-86.529C138.816,-86.596 138.806,-86.674 138.783,-86.763C138.783,-86.766 138.782,-86.769 138.78,-86.773L136.542,-93.089L136.481,-93.226C136.344,-93.611 136.1,-93.798 135.759,-93.798L130.495,-93.798C130.16,-93.798 129.893,-93.619 129.703,-93.25C129.702,-93.248 129.701,-93.246 129.7,-93.244C129.672,-93.177 129.657,-93.13 129.651,-93.104ZM135.323,-85.132L130.854,-85.132C130.825,-85.145 130.79,-85.153 130.747,-85.153L130.747,-85.153L130.746,-85.153L130.36,-85.153C129.37,-85.154 128.581,-85.376 127.995,-85.828C127.76,-86.011 127.637,-86.213 127.637,-86.44L127.636,-86.44L127.637,-86.443L127.637,-86.556L129.855,-93.048C129.857,-93.054 129.858,-93.06 129.859,-93.066C129.862,-93.074 129.877,-93.113 129.894,-93.154C130.041,-93.438 130.238,-93.584 130.495,-93.584C130.495,-93.584 135.759,-93.584 135.759,-93.584C136.01,-93.584 136.181,-93.436 136.281,-93.151L136.344,-93.009L136.342,-93.012L138.577,-86.706C138.594,-86.639 138.603,-86.58 138.603,-86.529C138.603,-86.102 138.372,-85.781 137.921,-85.561C137.6,-85.405 137.172,-85.3 136.638,-85.242C136.402,-85.222 136.102,-85.203 135.738,-85.183C135.557,-85.173 135.419,-85.156 135.323,-85.132ZM151.065,-104.94L150.176,-104.911C150.014,-104.907 149.903,-104.858 149.837,-104.782C149.789,-104.725 149.762,-104.652 149.762,-104.559L149.762,-94.996L149.792,-94.536C149.831,-94.264 149.966,-94.131 150.173,-94.118L151.692,-94.029C153.317,-94.029 154.625,-94.575 155.619,-95.665C156.61,-96.752 157.107,-98.117 157.107,-99.763C157.107,-101.413 156.621,-102.691 155.658,-103.599C154.695,-104.506 153.413,-104.962 151.811,-104.962C151.671,-104.962 151.541,-104.96 151.421,-104.955L151.065,-104.94ZM151.073,-104.727L151.43,-104.742C151.547,-104.747 151.674,-104.749 151.811,-104.749C153.352,-104.749 154.586,-104.316 155.511,-103.444C156.435,-102.573 156.894,-101.345 156.894,-99.763C156.894,-98.176 156.417,-96.857 155.461,-95.809C154.509,-94.765 153.254,-94.244 151.698,-94.242C151.695,-94.242 150.186,-94.331 150.186,-94.331C150.079,-94.338 150.026,-94.421 150.005,-94.561C150.004,-94.562 149.975,-94.999 149.975,-94.999C149.975,-94.999 149.975,-104.559 149.975,-104.559C149.975,-104.593 149.981,-104.622 149.999,-104.643C150.034,-104.683 150.097,-104.695 150.182,-104.697L151.073,-104.727ZM135.255,-95.23C135.375,-95.23 135.463,-95.26 135.523,-95.31C135.59,-95.366 135.628,-95.448 135.628,-95.559C135.628,-95.649 135.607,-95.751 135.562,-95.863L133.353,-101.942C133.278,-102.145 133.214,-102.275 133.165,-102.336C133.117,-102.396 133.067,-102.412 133.031,-102.412C132.995,-102.412 132.944,-102.396 132.895,-102.335C132.845,-102.273 132.776,-102.138 132.694,-101.929L130.617,-95.863C130.574,-95.752 130.552,-95.634 130.552,-95.507C130.552,-95.432 130.574,-95.373 130.613,-95.328C130.665,-95.269 130.752,-95.23 130.881,-95.23C130.881,-95.23 135.255,-95.23 135.255,-95.23ZM133.03,-102.141C133.063,-102.079 133.112,-101.98 133.153,-101.868L135.363,-95.786C135.397,-95.702 135.415,-95.627 135.415,-95.559C135.415,-95.528 135.411,-95.502 135.396,-95.483C135.369,-95.451 135.32,-95.443 135.255,-95.443L130.881,-95.443C130.831,-95.443 130.794,-95.445 130.774,-95.468C130.766,-95.478 130.765,-95.491 130.765,-95.507C130.765,-95.607 130.782,-95.7 130.817,-95.786L132.894,-101.853C132.94,-101.972 132.994,-102.076 133.03,-102.141Z" style="fill:white;"/>
    </g>
</svg>
