<?xml version="1.0" encoding="UTF-8" standalone="no"?>
<!DOCTYPE svg PUBLIC "-//W3C//DTD SVG 1.1//EN" "http://www.w3.org/Graphics/SVG/1.1/DTD/svg11.dtd">
<svg width="100%" height="100%" viewBox="0 0 652 635" version="1.1" xmlns="http://www.w3.org/2000/svg" xmlns:xlink="http://www.w3.org/1999/xlink" xml:space="preserve" xmlns:serif="http://www.serif.com/" style="fill-rule:evenodd;clip-rule:evenodd;stroke-linejoin:round;stroke-miterlimit:1.41421;">
    <g transform="matrix(15.2685,0,0,15.2685,-1876.51,1612.58)">
        <path d="M144.491,-85.025C144.515,-85.04 144.548,-85.047 144.59,-85.047C144.689,-85.047 144.835,-85.076 145.027,-85.136C145.22,-85.195 145.366,-85.234 145.465,-85.254C146.473,-85.482 146.977,-86.055 146.977,-86.974L146.977,-102.632C146.977,-103.541 146.809,-104.122 146.473,-104.374C146.137,-104.626 145.529,-104.752 144.649,-104.752L143.982,-104.752C143.774,-104.752 143.671,-104.871 143.671,-105.108C143.671,-105.246 143.735,-105.33 143.863,-105.36L143.967,-105.36L152.285,-105.582L153.783,-105.582C155.552,-105.464 157.025,-104.826 158.201,-103.67C159.378,-102.513 159.966,-101.127 159.966,-99.511C159.966,-97.894 159.387,-96.429 158.231,-95.114C157.727,-94.531 157.158,-94.059 156.526,-93.698C155.893,-93.337 155.27,-93.152 154.658,-93.142L150.209,-93.32L150.091,-93.32C149.943,-93.32 149.868,-93.251 149.868,-93.113L149.868,-87.019C149.868,-86.475 150.017,-86.075 150.313,-85.818C150.61,-85.561 151.237,-85.358 152.196,-85.21C152.325,-85.19 152.532,-85.158 152.819,-85.113C153.106,-85.069 153.298,-85.047 153.397,-85.047C153.496,-85.047 153.546,-85.007 153.546,-84.928L153.546,-84.572C153.546,-84.493 153.506,-84.454 153.427,-84.454L151.56,-84.454C151.442,-84.439 151.28,-84.432 151.075,-84.432C150.591,-84.432 150.196,-84.393 149.889,-84.314C149.405,-84.205 149.163,-83.943 149.163,-83.528C149.163,-83.36 149.247,-83.147 149.415,-82.89L153.537,-77.419C153.596,-77.36 153.631,-77.32 153.64,-77.3C153.65,-77.281 153.697,-77.271 153.781,-77.271C153.865,-77.271 154.006,-77.384 154.204,-77.612L158.207,-82.742C158.395,-82.969 158.489,-83.211 158.489,-83.468C158.489,-84.111 157.748,-84.432 156.265,-84.432C156.186,-84.432 156.146,-84.472 156.146,-84.551L156.146,-84.922C156.146,-84.991 156.186,-85.025 156.265,-85.025L164.227,-85.025C164.306,-85.025 164.346,-84.986 164.346,-84.907L164.346,-84.551C164.346,-84.472 164.306,-84.432 164.227,-84.432C162.646,-84.432 161.074,-83.523 159.512,-81.704L154.916,-75.699C154.925,-75.689 154.945,-75.657 154.975,-75.603C155.005,-75.548 155.178,-75.301 155.494,-74.861C155.81,-74.421 156.952,-72.894 158.919,-70.28C160.886,-67.665 161.998,-66.244 162.255,-66.017C162.937,-65.384 163.575,-65.014 164.168,-64.905C164.286,-64.845 164.422,-64.811 164.576,-64.801C164.729,-64.791 164.926,-64.779 165.169,-64.764C165.411,-64.749 165.532,-64.648 165.532,-64.46C165.532,-64.233 165.339,-64.119 164.954,-64.119L156.784,-64.119C156.705,-64.119 156.665,-64.158 156.665,-64.238L156.665,-64.593C156.665,-64.692 156.813,-64.742 157.11,-64.742C158.187,-64.712 158.726,-64.999 158.726,-65.602C158.726,-65.75 158.667,-65.923 158.548,-66.121L153.329,-73.015C153.25,-73.114 153.166,-73.164 153.077,-73.164C152.988,-73.164 152.904,-73.114 152.825,-73.015L147.71,-66.269C147.571,-66.081 147.502,-65.859 147.502,-65.602C147.502,-65.009 148.135,-64.737 149.4,-64.786C149.855,-64.806 150.082,-64.742 150.082,-64.593L150.082,-64.238C150.082,-64.158 150.042,-64.119 149.963,-64.119L141.912,-64.119C141.833,-64.119 141.794,-64.158 141.794,-64.238L141.794,-64.593C141.794,-64.673 141.833,-64.712 141.912,-64.712L142.49,-64.712C143.795,-64.87 145.09,-65.775 146.375,-67.425C146.721,-67.86 147.062,-68.266 147.398,-68.641L152.069,-74.795L147.546,-80.622C147.26,-80.987 146.983,-81.358 146.716,-81.734C145.747,-83.098 144.68,-83.918 143.513,-84.195C143.118,-84.353 142.584,-84.432 141.912,-84.432C141.879,-84.432 141.852,-84.439 141.833,-84.454L138.772,-84.454L139.036,-80.206C139.036,-80.108 138.962,-80.058 138.813,-80.058C138.665,-80.058 138.556,-80.103 138.487,-80.192C138.428,-80.29 138.351,-80.651 138.257,-81.274C138.163,-81.897 137.993,-82.416 137.746,-82.831C137.499,-83.246 137.064,-83.508 136.441,-83.617L130.258,-83.617C130.129,-83.617 130.065,-83.552 130.065,-83.424L130.065,-75.758C130.065,-75.659 130.115,-75.61 130.213,-75.61L135.344,-75.61C136.668,-75.61 137.331,-76.381 137.331,-77.923C137.331,-78.002 137.37,-78.042 137.449,-78.042L137.805,-78.042C137.884,-78.042 137.924,-78.002 137.924,-77.923L137.924,-71.577C137.924,-71.498 137.884,-71.458 137.805,-71.458L137.449,-71.458C137.37,-71.458 137.331,-71.498 137.331,-71.577C137.331,-73.04 136.905,-73.885 136.055,-74.112C135.818,-74.172 135.566,-74.201 135.299,-74.201L130.213,-74.201C130.115,-74.201 130.065,-74.152 130.065,-74.053L130.065,-66.832C130.065,-66.091 130.406,-65.671 131.088,-65.572C131.286,-65.542 131.494,-65.528 131.711,-65.528L136.648,-65.528C137.667,-65.528 138.457,-65.977 139.021,-66.877C139.426,-67.519 139.673,-68.256 139.762,-69.086C139.792,-69.363 139.94,-69.501 140.207,-69.501C140.326,-69.501 140.385,-69.437 140.385,-69.308L139.896,-64.327C139.836,-64.188 139.767,-64.119 139.688,-64.119L123.171,-64.119C123.091,-64.119 123.052,-64.158 123.052,-64.238L123.052,-64.653C123.052,-64.732 123.091,-64.771 123.171,-64.771L123.497,-64.771C123.912,-64.801 124.337,-64.818 124.772,-64.823C125.207,-64.828 125.602,-64.88 125.958,-64.979C126.769,-65.216 127.174,-65.809 127.174,-66.758L127.174,-82.386C127.174,-83.365 126.596,-83.987 125.439,-84.254C125.113,-84.323 123.836,-84.432 123.363,-84.432L123.052,-84.432C122.973,-84.432 122.933,-84.472 122.933,-84.551L122.933,-84.907C122.933,-84.986 122.973,-85.025 123.052,-85.025L123.116,-85.025C123.147,-85.04 123.19,-85.047 123.245,-85.047C124.599,-85.106 125.513,-85.828 125.988,-87.211L132.037,-104.722C132.047,-104.742 132.052,-104.767 132.052,-104.796L131.889,-105.286C131.889,-105.335 131.909,-105.36 131.948,-105.36L134.914,-105.36C134.933,-105.35 134.961,-105.34 134.995,-105.33C135.03,-105.32 135.057,-105.291 135.077,-105.241L141.349,-87.641C141.487,-87.374 141.598,-87.132 141.682,-86.915C141.766,-86.697 141.863,-86.5 141.971,-86.322C142.209,-85.916 142.599,-85.605 143.143,-85.388C143.598,-85.16 144.013,-85.047 144.388,-85.047C144.42,-85.047 144.445,-85.04 144.464,-85.025L144.491,-85.025ZM135.336,-85.025C135.428,-85.05 135.564,-85.067 135.744,-85.076C136.11,-85.096 136.411,-85.116 136.648,-85.136C138.022,-85.284 138.709,-85.748 138.709,-86.529C138.709,-86.589 138.7,-86.658 138.68,-86.737L136.441,-93.053C136.431,-93.073 136.411,-93.118 136.382,-93.187C136.263,-93.523 136.055,-93.691 135.759,-93.691L130.495,-93.691C130.199,-93.691 129.966,-93.528 129.798,-93.202C129.769,-93.132 129.754,-93.093 129.754,-93.083L127.53,-86.574L127.53,-86.44C127.53,-86.183 127.663,-85.951 127.93,-85.743C128.533,-85.279 129.344,-85.047 130.362,-85.047L130.747,-85.047C130.781,-85.047 130.807,-85.04 130.826,-85.025L135.336,-85.025ZM151.069,-104.834L150.18,-104.804C149.972,-104.799 149.868,-104.717 149.868,-104.559L149.868,-94.996L149.898,-94.551C149.928,-94.343 150.022,-94.235 150.18,-94.225L151.692,-94.136C153.284,-94.136 154.566,-94.669 155.54,-95.737C156.513,-96.805 157,-98.146 157,-99.763C157,-101.379 156.528,-102.632 155.584,-103.521C154.64,-104.411 153.382,-104.856 151.811,-104.856C151.672,-104.856 151.544,-104.853 151.425,-104.848C151.307,-104.843 151.188,-104.838 151.069,-104.834ZM135.255,-95.337C135.433,-95.337 135.522,-95.411 135.522,-95.559C135.522,-95.638 135.502,-95.727 135.462,-95.826L133.253,-101.905C133.154,-102.172 133.08,-102.305 133.031,-102.305C132.981,-102.305 132.902,-102.167 132.793,-101.89L130.718,-95.826C130.678,-95.727 130.658,-95.621 130.658,-95.507C130.658,-95.394 130.732,-95.337 130.881,-95.337L135.255,-95.337Z" style="fill:none;fill-rule:nonzero;stroke:rgb(48,48,48);stroke-width:0.07px;"/>
    </g>
</svg>
